<svg width="24" height="24" viewBox="0 0 24 24" fill="none" xmlns="http://www.w3.org/2000/svg">
<rect width="24" height="24" fill="black"/>
<path opacity="0.1" fill-rule="evenodd" clip-rule="evenodd" d="M0 12C0 5.37258 5.37258 0 12 0C18.6274 0 24 5.37258 24 12C24 18.6274 18.6274 24 12 24C5.37258 24 0 18.6274 0 12Z" fill="white"/>
<path fill-rule="evenodd" clip-rule="evenodd" d="M12.0006 5.60156C10.2624 5.60156 10.0443 5.60916 9.36164 5.64023C8.6803 5.67143 8.21523 5.7793 7.80829 5.93757C7.38735 6.10103 7.03028 6.3197 6.67454 6.67557C6.31854 7.03131 6.09987 7.38838 5.93587 7.80919C5.7772 8.21626 5.6692 8.68146 5.63853 9.36253C5.608 10.0452 5.6 10.2635 5.6 12.0016C5.6 13.7398 5.60773 13.9572 5.63867 14.6399C5.67 15.3213 5.77787 15.7863 5.936 16.1933C6.0996 16.6142 6.31827 16.9713 6.67414 17.327C7.02975 17.683 7.38682 17.9022 7.80749 18.0657C8.21469 18.224 8.6799 18.3318 9.3611 18.363C10.0438 18.3941 10.2618 18.4017 11.9998 18.4017C13.7381 18.4017 13.9556 18.3941 14.6382 18.363C15.3196 18.3318 15.7852 18.224 16.1924 18.0657C16.6132 17.9022 16.9697 17.683 17.3253 17.327C17.6813 16.9713 17.9 16.6142 18.064 16.1934C18.2213 15.7863 18.3293 15.3211 18.3613 14.6401C18.392 13.9574 18.4 13.7398 18.4 12.0016C18.4 10.2635 18.392 10.0453 18.3613 9.36267C18.3293 8.68133 18.2213 8.21626 18.064 7.80932C17.9 7.38838 17.6813 7.03131 17.3253 6.67557C16.9693 6.31957 16.6133 6.1009 16.192 5.93757C15.784 5.7793 15.3186 5.67143 14.6373 5.64023C13.9546 5.60916 13.7373 5.60156 11.9986 5.60156H12.0006ZM11.4264 6.75489C11.5968 6.75462 11.787 6.75489 12.0006 6.75489C13.7094 6.75489 13.9119 6.76102 14.5867 6.79169C15.2107 6.82022 15.5494 6.92449 15.775 7.01209C16.0737 7.12809 16.2866 7.26676 16.5105 7.49076C16.7345 7.71477 16.8732 7.9281 16.9894 8.22677C17.077 8.45211 17.1814 8.79078 17.2098 9.41478C17.2405 10.0895 17.2472 10.2921 17.2472 12.0001C17.2472 13.7082 17.2405 13.9108 17.2098 14.5855C17.1813 15.2095 17.077 15.5482 16.9894 15.7735C16.8734 16.0722 16.7345 16.2849 16.5105 16.5087C16.2865 16.7327 16.0738 16.8714 15.775 16.9874C15.5497 17.0754 15.2107 17.1794 14.5867 17.2079C13.9121 17.2386 13.7094 17.2453 12.0006 17.2453C10.2916 17.2453 10.0891 17.2386 9.41441 17.2079C8.7904 17.1791 8.45173 17.0749 8.226 16.9873C7.92733 16.8713 7.71399 16.7326 7.48999 16.5086C7.26599 16.2846 7.12732 16.0718 7.01105 15.773C6.92345 15.5476 6.81905 15.209 6.79065 14.585C6.75998 13.9103 6.75385 13.7076 6.75385 11.9985C6.75385 10.2895 6.75998 10.0879 6.79065 9.41318C6.81918 8.78918 6.92345 8.45051 7.01105 8.22491C7.12705 7.92624 7.26599 7.7129 7.48999 7.4889C7.71399 7.2649 7.92733 7.12623 8.226 7.00996C8.4516 6.92196 8.7904 6.81796 9.41441 6.78929C10.0048 6.76262 10.2336 6.75462 11.4264 6.75329V6.75489ZM15.4169 7.81757C14.9929 7.81757 14.6489 8.16117 14.6489 8.58531C14.6489 9.00932 14.9929 9.35332 15.4169 9.35332C15.8409 9.35332 16.1849 9.00932 16.1849 8.58531C16.1849 8.16131 15.8409 7.81757 15.4169 7.81757ZM12.0006 8.71491C10.1855 8.71491 8.71391 10.1865 8.71391 12.0016C8.71391 13.8167 10.1855 15.2876 12.0006 15.2876C13.8157 15.2876 15.2868 13.8167 15.2868 12.0016C15.2868 10.1865 13.8157 8.71491 12.0006 8.71491ZM12.0006 9.86826C13.1787 9.86826 14.1339 10.8233 14.1339 12.0016C14.1339 13.1798 13.1787 14.135 12.0006 14.135C10.8223 14.135 9.86723 13.1798 9.86723 12.0016C9.86723 10.8233 10.8223 9.86826 12.0006 9.86826Z" fill="white"/>
</svg>
