<svg width="24" height="24" viewBox="0 0 24 24" fill="none" xmlns="http://www.w3.org/2000/svg">
<rect width="24" height="24" fill="black"/>
<path opacity="0.1" fill-rule="evenodd" clip-rule="evenodd" d="M0 12C0 5.37258 5.37258 0 12 0C18.6274 0 24 5.37258 24 12C24 18.6274 18.6274 24 12 24C5.37258 24 0 18.6274 0 12Z" fill="white"/>
<path fill-rule="evenodd" clip-rule="evenodd" d="M18.4 11.9927C18.4 12.4255 18.3559 12.8577 18.2694 13.279C18.185 13.6903 18.06 14.0941 17.8962 14.4802C17.7362 14.8594 17.5378 15.2248 17.3059 15.5655C17.0775 15.9041 16.8143 16.2218 16.5252 16.5114C16.2355 16.7997 15.9168 17.0622 15.5783 17.2916C15.2364 17.5219 14.8705 17.72 14.4911 17.8808C14.1045 18.0437 13.6998 18.1685 13.2888 18.2527C12.867 18.3395 12.4332 18.3838 11.9997 18.3838C11.5659 18.3838 11.1322 18.3395 10.7109 18.2527C10.2993 18.1685 9.89461 18.0437 9.50834 17.8808C9.12895 17.72 8.76267 17.5219 8.42078 17.2916C8.08233 17.0622 7.76356 16.7997 7.47448 16.5114C7.1851 16.2218 6.92195 15.9041 6.69319 15.5655C6.46255 15.2248 6.26378 14.8593 6.10316 14.4802C5.93938 14.0941 5.81408 13.6903 5.72938 13.279C5.64376 12.8577 5.6 12.4255 5.6 11.9927C5.6 11.5595 5.64374 11.1264 5.72941 10.706C5.8141 10.2947 5.9394 9.89028 6.10318 9.50489C6.26381 9.12542 6.46258 8.75969 6.69322 8.4189C6.92198 8.08001 7.18513 7.76293 7.47451 7.47302C7.76359 7.18465 8.08235 6.92286 8.42081 6.6938C8.76269 6.46255 9.12898 6.26441 9.50836 6.10337C9.89464 5.94013 10.2993 5.81501 10.7109 5.73139C11.1322 5.64526 11.566 5.60156 11.9997 5.60156C12.4332 5.60156 12.867 5.64526 13.2888 5.73139C13.6998 5.81503 14.1045 5.94015 14.4911 6.10337C14.8705 6.26439 15.2365 6.46255 15.5783 6.6938C15.9168 6.92286 16.2356 7.18465 16.5253 7.47302C16.8143 7.76293 17.0775 8.08001 17.3059 8.4189C17.5378 8.75969 17.7362 9.12545 17.8962 9.50489C18.06 9.89028 18.185 10.2947 18.2694 10.706C18.3559 11.1264 18.4 11.5595 18.4 11.9927ZM9.66769 7.0561C8.14353 7.7748 7.00597 9.17722 6.65126 10.8674C6.79535 10.8686 9.07297 10.8973 11.6972 10.2011C10.7512 8.5228 9.74051 7.15318 9.66769 7.0561ZM12.15 11.0415C9.33579 11.8828 6.63533 11.8223 6.53846 11.8186C6.53688 11.8772 6.53407 11.934 6.53407 11.9927C6.53407 13.3948 7.06379 14.673 7.93446 15.6395C7.93258 15.6367 9.4283 12.9869 12.3778 12.0345C12.4491 12.0108 12.5216 11.9896 12.5935 11.969C12.4563 11.6588 12.3066 11.348 12.15 11.0415ZM15.6093 7.8965C14.647 7.04922 13.3835 6.53528 11.9997 6.53528C11.5556 6.53528 11.1246 6.58896 10.7118 6.6882C10.7937 6.79806 11.8203 8.15802 12.755 9.87187C14.8173 9.09983 15.5958 7.91646 15.6093 7.8965ZM12.966 12.8733C12.9538 12.8774 12.9417 12.8808 12.9298 12.8852C9.70497 14.0078 8.65187 16.2701 8.64047 16.2948C9.56835 17.0154 10.7322 17.4501 11.9997 17.4501C12.7566 17.4501 13.4776 17.2962 14.1336 17.0176C14.0526 16.5407 13.7351 14.8693 12.966 12.8733ZM15.0539 16.5189C16.2812 15.6919 17.1528 14.3788 17.3959 12.8577C17.2834 12.8215 15.7542 12.3381 13.9901 12.6205C14.707 14.5878 14.9983 16.19 15.0539 16.5189ZM13.1757 10.6851C13.3026 10.9454 13.4254 11.2103 13.5389 11.4765C13.5792 11.572 13.6186 11.6656 13.657 11.7593C15.5346 11.5233 17.3844 11.9203 17.4634 11.9365C17.4509 10.6427 16.9875 9.45525 16.2206 8.52563C16.2103 8.54026 15.3337 9.80508 13.1757 10.6851Z" fill="white"/>
</svg>
