<svg width="24" height="24" viewBox="0 0 24 24" fill="none" xmlns="http://www.w3.org/2000/svg">
<rect width="24" height="24" fill="black"/>
<path opacity="0.1" fill-rule="evenodd" clip-rule="evenodd" d="M0 12C0 5.37258 5.37258 0 12 0C18.6274 0 24 5.37258 24 12C24 18.6274 18.6274 24 12 24C5.37258 24 0 18.6274 0 12Z" fill="white"/>
<path fill-rule="evenodd" clip-rule="evenodd" d="M17.0008 7.87623C17.5516 8.02736 17.9853 8.47267 18.1325 9.03817C18.4 10.0631 18.4 12.2016 18.4 12.2016C18.4 12.2016 18.4 14.34 18.1325 15.365C17.9853 15.9305 17.5516 16.3758 17.0008 16.527C16.0027 16.8016 12 16.8016 12 16.8016C12 16.8016 7.99732 16.8016 6.99913 16.527C6.44837 16.3758 6.01462 15.9305 5.86742 15.365C5.60001 14.34 5.60001 12.2016 5.60001 12.2016C5.60001 12.2016 5.60001 10.0631 5.86742 9.03817C6.01462 8.47267 6.44837 8.02736 6.99913 7.87623C7.99732 7.60156 12 7.60156 12 7.60156C12 7.60156 16.0027 7.60156 17.0008 7.87623ZM10.8 10.4015V14.4015L14 12.4016L10.8 10.4015Z" fill="white"/>
</svg>
