<svg width="103" height="44" viewBox="0 0 103 44" fill="none" xmlns="http://www.w3.org/2000/svg">
<path d="M29.898 28.428L23.4 24.702V23.244L29.898 19.518L30.762 20.868L24.3 24.576V23.37L30.762 27.078L29.898 28.428ZM38.7484 28.5V15.9H44.0044C44.8084 15.9 45.4864 16.02 46.0384 16.26C46.5904 16.5 47.0044 16.86 47.2804 17.34C47.5684 17.808 47.7124 18.384 47.7124 19.068C47.7124 19.752 47.5204 20.334 47.1364 20.814C46.7644 21.294 46.2424 21.624 45.5704 21.804V21.444C46.1344 21.564 46.6264 21.78 47.0464 22.092C47.4664 22.392 47.7904 22.77 48.0184 23.226C48.2584 23.682 48.3784 24.204 48.3784 24.792C48.3784 25.392 48.2824 25.926 48.0904 26.394C47.9104 26.85 47.6344 27.234 47.2624 27.546C46.9024 27.858 46.4644 28.098 45.9484 28.266C45.4324 28.422 44.8444 28.5 44.1844 28.5H38.7484ZM40.6924 26.628H44.0764C44.5684 26.628 44.9824 26.556 45.3184 26.412C45.6664 26.268 45.9304 26.058 46.1104 25.782C46.3024 25.494 46.3984 25.152 46.3984 24.756C46.3984 24.384 46.2964 24.066 46.0924 23.802C45.9004 23.538 45.6244 23.34 45.2644 23.208C44.9044 23.064 44.4784 22.992 43.9864 22.992H40.6924V26.628ZM40.6924 21.12H43.8964C44.2564 21.12 44.5744 21.048 44.8504 20.904C45.1384 20.76 45.3604 20.562 45.5164 20.31C45.6844 20.058 45.7684 19.77 45.7684 19.446C45.7684 18.906 45.5884 18.492 45.2284 18.204C44.8684 17.916 44.3524 17.772 43.6804 17.772H40.6924V21.12ZM54.1508 28.68C53.3708 28.68 52.6568 28.464 52.0088 28.032C51.3728 27.6 50.8628 27.012 50.4788 26.268C50.0948 25.524 49.9028 24.684 49.9028 23.748C49.9028 22.8 50.0948 21.96 50.4788 21.228C50.8748 20.484 51.4028 19.902 52.0628 19.482C52.7348 19.062 53.4848 18.852 54.3128 18.852C54.8048 18.852 55.2548 18.924 55.6628 19.068C56.0708 19.212 56.4248 19.416 56.7248 19.68C57.0368 19.932 57.2888 20.226 57.4808 20.562C57.6848 20.898 57.8108 21.258 57.8588 21.642L57.4448 21.498V19.05H59.3168V28.5H57.4448V26.25L57.8768 26.124C57.8048 26.448 57.6548 26.766 57.4268 27.078C57.2108 27.378 56.9288 27.648 56.5808 27.888C56.2448 28.128 55.8668 28.32 55.4468 28.464C55.0388 28.608 54.6068 28.68 54.1508 28.68ZM54.6368 26.97C55.2008 26.97 55.6988 26.832 56.1308 26.556C56.5628 26.28 56.8988 25.902 57.1388 25.422C57.3908 24.93 57.5168 24.372 57.5168 23.748C57.5168 23.136 57.3908 22.59 57.1388 22.11C56.8988 21.63 56.5628 21.252 56.1308 20.976C55.6988 20.7 55.2008 20.562 54.6368 20.562C54.0848 20.562 53.5928 20.7 53.1608 20.976C52.7408 21.252 52.4048 21.63 52.1528 22.11C51.9128 22.59 51.7928 23.136 51.7928 23.748C51.7928 24.372 51.9128 24.93 52.1528 25.422C52.4048 25.902 52.7408 26.28 53.1608 26.556C53.5928 26.832 54.0848 26.97 54.6368 26.97ZM65.9194 28.68C65.0434 28.68 64.2574 28.464 63.5614 28.032C62.8774 27.6 62.3314 27.012 61.9234 26.268C61.5274 25.524 61.3294 24.69 61.3294 23.766C61.3294 22.842 61.5274 22.008 61.9234 21.264C62.3314 20.52 62.8774 19.932 63.5614 19.5C64.2574 19.068 65.0434 18.852 65.9194 18.852C66.7594 18.852 67.5214 19.026 68.2054 19.374C68.9014 19.71 69.4294 20.172 69.7894 20.76L68.7634 22.02C68.5714 21.744 68.3254 21.492 68.0254 21.264C67.7254 21.036 67.4074 20.856 67.0714 20.724C66.7354 20.592 66.4114 20.526 66.0994 20.526C65.5234 20.526 65.0074 20.67 64.5514 20.958C64.1074 21.234 63.7534 21.618 63.4894 22.11C63.2254 22.602 63.0934 23.154 63.0934 23.766C63.0934 24.378 63.2314 24.93 63.5074 25.422C63.7834 25.902 64.1494 26.286 64.6054 26.574C65.0614 26.862 65.5654 27.006 66.1174 27.006C66.4414 27.006 66.7534 26.952 67.0534 26.844C67.3654 26.736 67.6654 26.574 67.9534 26.358C68.2414 26.142 68.5114 25.878 68.7634 25.566L69.7894 26.826C69.4054 27.366 68.8534 27.81 68.1334 28.158C67.4254 28.506 66.6874 28.68 65.9194 28.68ZM73.2302 25.548L73.1402 23.532L77.6582 19.05H80.1602L73.2302 25.548ZM71.5382 28.5V15.18H73.3922V28.5H71.5382ZM77.9102 28.5L74.3462 24.342L75.6602 23.136L80.2862 28.5H77.9102Z" fill="#46BDE1"/>
</svg>
