<svg width="14" height="13" viewBox="0 0 14 13" fill="none" xmlns="http://www.w3.org/2000/svg">
<path d="M11.6846 6.87469L7.09201 10.9148C5.83275 12.0226 3.83275 12.0226 2.64757 10.9148C1.38831 9.80702 1.38831 8.04762 2.64757 7.00501L8.57349 1.79198C9.31424 1.20551 10.4253 1.20551 11.1661 1.79198C11.9068 2.44361 11.9068 3.48622 11.1661 4.07268L6.05498 8.56892C5.83276 8.76441 5.46238 8.76441 5.24016 8.56892C5.01794 8.37343 5.01794 8.04762 5.24016 7.85213L9.01794 4.52882C9.31424 4.26817 9.31424 3.87719 9.01794 3.61654C8.72164 3.35589 8.2772 3.35589 7.9809 3.61654L4.20313 7.00501C3.38831 7.7218 3.38831 8.82957 4.20313 9.54637C5.01794 10.198 6.2772 10.198 7.09201 9.54637L12.2031 5.05013C13.5365 3.87719 13.5365 2.05263 12.2031 0.879699C10.8698 -0.293233 8.79572 -0.293233 7.46238 0.879699L1.53646 6.09273C0.64757 6.87469 0.203125 7.91729 0.203125 8.9599C0.203125 11.2406 2.2772 13 4.86979 13C6.12905 13 7.24016 12.5439 8.12905 11.8271L12.7216 7.78697C13.0179 7.52632 13.0179 7.13534 12.7216 6.87469C12.4253 6.61403 11.9809 6.61403 11.6846 6.87469Z" fill="white"/>
</svg>
