<svg width="71" height="48" viewBox="0 0 71 48" fill="none" xmlns="http://www.w3.org/2000/svg">
<path d="M57.2437 18.12C55.2321 7.77 46.2683 0 35.5 0C26.9504 0 19.525 4.92 15.8271 12.12C6.9225 13.08 0 20.73 0 30C0 39.93 7.95792 48 17.75 48H56.2083C64.3733 48 71 41.28 71 33C71 25.08 64.9354 18.66 57.2437 18.12ZM56.2083 42H17.75C11.2121 42 5.91667 36.63 5.91667 30C5.91667 23.85 10.4429 18.72 16.4483 18.09L19.6137 17.76L21.0929 14.91C23.9033 9.42 29.4058 6 35.5 6C43.2508 6 49.9367 11.58 51.4454 19.29L52.3329 23.79L56.8592 24.12C61.4742 24.42 65.0833 28.35 65.0833 33C65.0833 37.95 61.0896 42 56.2083 42V42ZM23.6667 27H31.2104V36H39.7896V27H47.3333L35.5 15L23.6667 27Z" fill="#548CA8" fill-opacity="0.08"/>
<path d="M56.7529 18.2154L56.8261 18.5919L57.2087 18.6188C64.6377 19.1403 70.5 25.3417 70.5 33C70.5 41.0105 64.0906 47.5 56.2083 47.5H17.75C8.24063 47.5 0.5 39.6605 0.5 30C0.5 20.982 7.23342 13.5494 15.8807 12.6171L16.1487 12.5882L16.2719 12.3484C19.8889 5.30591 27.148 0.5 35.5 0.5C46.0195 0.5 54.7851 8.09091 56.7529 18.2154ZM16.3965 17.5927L16.3962 17.5927C10.1278 18.2503 5.41667 23.6025 5.41667 30C5.41667 36.8995 10.9294 42.5 17.75 42.5H56.2083C61.3723 42.5 65.5833 38.2195 65.5833 33C65.5833 28.0937 61.7772 23.9398 56.8938 23.6212C56.8931 23.6211 56.8923 23.6211 56.8916 23.6211L52.7497 23.3191L51.9361 19.194C50.3825 11.2546 43.4953 5.5 35.5 5.5C29.2142 5.5 23.5426 9.02854 20.6485 14.6809C20.6483 14.6813 20.6481 14.6817 20.6478 14.6822L19.294 17.2906L16.3965 17.5927ZM31.7104 27V26.5H31.2104H24.8619L35.5 15.7121L46.1381 26.5H39.7896H39.2896V27V35.5H31.7104V27Z" stroke="#548CA8" stroke-opacity="0.45"/>
</svg>
