<svg width="24" height="35" viewBox="0 0 24 35" fill="none" xmlns="http://www.w3.org/2000/svg">
<path d="M14 9.29688V0H1.5C0.66875 0 0 0.731445 0 1.64062V33.3594C0 34.2686 0.66875 35 1.5 35H22.5C23.3312 35 24 34.2686 24 33.3594V10.9375H15.5C14.675 10.9375 14 10.1992 14 9.29688ZM18.0737 24.0632H14V29.5319C14 30.1362 13.5525 30.6257 13 30.6257H11C10.4475 30.6257 10 30.1362 10 29.5319V24.0632H5.92625C5.03375 24.0632 4.58813 22.8813 5.22188 22.1929L11.2481 15.6509C11.6637 15.199 12.335 15.199 12.7506 15.6509L18.7769 22.1929C19.4112 22.8813 18.9662 24.0632 18.0737 24.0632ZM23.5625 7.17773L17.4438 0.478516C17.1625 0.170898 16.7812 0 16.3813 0H16V8.75H24V8.33301C24 7.90234 23.8438 7.48535 23.5625 7.17773Z" fill="#191D23"/>
</svg>
