<svg width="13" height="13" viewBox="0 0 13 13" fill="none" xmlns="http://www.w3.org/2000/svg">
<path d="M11.4815 6.87469L6.88889 10.9148C5.62963 12.0226 3.62963 12.0226 2.44444 10.9148C1.18519 9.80702 1.18519 8.04762 2.44444 7.00501L8.37037 1.79198C9.11111 1.20551 10.2222 1.20551 10.963 1.79198C11.7037 2.44361 11.7037 3.48622 10.963 4.07268L5.85185 8.56892C5.62963 8.76441 5.25926 8.76441 5.03704 8.56892C4.81481 8.37343 4.81481 8.04762 5.03704 7.85213L8.81481 4.52882C9.11111 4.26817 9.11111 3.87719 8.81481 3.61654C8.51852 3.35589 8.07407 3.35589 7.77778 3.61654L4 7.00501C3.18519 7.7218 3.18519 8.82957 4 9.54637C4.81482 10.198 6.07407 10.198 6.88889 9.54637L12 5.05013C13.3333 3.87719 13.3333 2.05263 12 0.879699C10.6667 -0.293233 8.59259 -0.293233 7.25926 0.879699L1.33333 6.09273C0.444445 6.87469 0 7.91729 0 8.9599C0 11.2406 2.07407 13 4.66667 13C5.92593 13 7.03704 12.5439 7.92593 11.8271L12.5185 7.78697C12.8148 7.52632 12.8148 7.13534 12.5185 6.87469C12.2222 6.61403 11.7778 6.61403 11.4815 6.87469Z" fill="#121212"/>
</svg>
