<svg width="192" height="25" viewBox="0 0 192 25" fill="none" xmlns="http://www.w3.org/2000/svg">
<g opacity="0.7">
<path d="M7.808 4.608H0.384V1.216H19.424V4.608H11.968V24H7.808V4.608ZM83.3375 24.288C81.0975 24.288 79.1348 23.808 77.4495 22.848C75.7855 21.888 74.5055 20.5333 73.6095 18.784C72.7135 17.0133 72.2655 14.944 72.2655 12.576C72.2655 10.2293 72.7135 8.18133 73.6095 6.432C74.5055 4.66133 75.7855 3.30667 77.4495 2.368C79.1348 1.408 81.0975 0.927999 83.3375 0.927999C84.8735 0.927999 86.3135 1.17333 87.6575 1.664C89.0228 2.13333 90.1535 2.79467 91.0495 3.648L89.7055 6.656C88.6815 5.824 87.6575 5.22667 86.6335 4.864C85.6308 4.48 84.5535 4.288 83.4015 4.288C81.2042 4.288 79.4975 5.00267 78.2815 6.432C77.0868 7.86133 76.4895 9.90933 76.4895 12.576C76.4895 15.264 77.0868 17.3333 78.2815 18.784C79.4762 20.2133 81.1828 20.928 83.4015 20.928C84.5535 20.928 85.6308 20.7467 86.6335 20.384C87.6575 20 88.6815 19.392 89.7055 18.56L91.0495 21.568C90.1535 22.4213 89.0228 23.0933 87.6575 23.584C86.3135 24.0533 84.8735 24.288 83.3375 24.288Z" fill="#46BDE1"/>
<path d="M31.0925 7.456C31.7112 7.456 32.2445 7.54133 32.6925 7.712L32.6605 11.36C31.9778 11.0827 31.2738 10.944 30.5485 10.944C29.1832 10.944 28.1378 11.3387 27.4125 12.128C26.7085 12.9173 26.3565 13.9627 26.3565 15.264V24H22.3885V12.416C22.3885 10.7093 22.3032 9.184 22.1325 7.84H25.8765L26.1965 10.688C26.6018 9.64267 27.2418 8.84267 28.1165 8.288C28.9912 7.73333 29.9832 7.456 31.0925 7.456ZM50.0397 7.84V24H46.1357V21.504C45.6238 22.4 44.9411 23.0827 44.0877 23.552C43.2344 24.0213 42.2531 24.256 41.1437 24.256C37.1971 24.256 35.2237 22.0373 35.2237 17.6V7.84H39.1917V17.632C39.1917 18.8053 39.4264 19.6693 39.8957 20.224C40.3864 20.7787 41.1331 21.056 42.1357 21.056C43.3091 21.056 44.2477 20.672 44.9517 19.904C45.6557 19.136 46.0077 18.112 46.0077 16.832V7.84H50.0397ZM68.9263 16.128H57.7903C57.8756 17.856 58.3023 19.136 59.0703 19.968C59.8596 20.7787 61.0223 21.184 62.5583 21.184C64.3289 21.184 65.9716 20.608 67.4863 19.456L68.6383 22.208C67.8703 22.8267 66.9209 23.328 65.7903 23.712C64.6809 24.0747 63.5503 24.256 62.3983 24.256C59.7529 24.256 57.6729 23.5093 56.1583 22.016C54.6436 20.5227 53.8863 18.4747 53.8863 15.872C53.8863 14.2293 54.2169 12.768 54.8783 11.488C55.5396 10.208 56.4676 9.216 57.6623 8.512C58.8569 7.78667 60.2116 7.424 61.7263 7.424C63.9449 7.424 65.6943 8.14933 66.9743 9.6C68.2756 11.0293 68.9263 13.0027 68.9263 15.52V16.128ZM61.8223 10.304C60.7556 10.304 59.8809 10.624 59.1983 11.264C58.5369 11.8827 58.1103 12.7893 57.9183 13.984H65.4383C65.3103 12.768 64.9369 11.8507 64.3183 11.232C63.7209 10.6133 62.8889 10.304 61.8223 10.304ZM102.348 24.256C100.705 24.256 99.2544 23.9147 97.9958 23.232C96.7584 22.5493 95.7984 21.5787 95.1158 20.32C94.4544 19.04 94.1238 17.5467 94.1238 15.84C94.1238 14.1333 94.4544 12.6507 95.1158 11.392C95.7984 10.112 96.7584 9.13067 97.9958 8.448C99.2544 7.76533 100.705 7.424 102.348 7.424C103.969 7.424 105.398 7.76533 106.636 8.448C107.873 9.13067 108.822 10.112 109.484 11.392C110.166 12.6507 110.508 14.1333 110.508 15.84C110.508 17.5467 110.166 19.04 109.484 20.32C108.822 21.5787 107.873 22.5493 106.636 23.232C105.398 23.9147 103.969 24.256 102.348 24.256ZM102.316 21.12C103.681 21.12 104.716 20.6827 105.42 19.808C106.145 18.912 106.508 17.5893 106.508 15.84C106.508 14.112 106.145 12.8 105.42 11.904C104.694 10.9867 103.67 10.528 102.348 10.528C101.004 10.528 99.9691 10.9867 99.2438 11.904C98.5184 12.8 98.1558 14.112 98.1558 15.84C98.1558 17.5893 98.5078 18.912 99.2118 19.808C99.9371 20.6827 100.972 21.12 102.316 21.12ZM129.077 7.84V24H125.173V21.504C124.661 22.4 123.979 23.0827 123.125 23.552C122.272 24.0213 121.291 24.256 120.181 24.256C116.235 24.256 114.261 22.0373 114.261 17.6V7.84H118.229V17.632C118.229 18.8053 118.464 19.6693 118.933 20.224C119.424 20.7787 120.171 21.056 121.173 21.056C122.347 21.056 123.285 20.672 123.989 19.904C124.693 19.136 125.045 18.112 125.045 16.832V7.84H129.077ZM143.068 7.424C146.929 7.424 148.86 9.64267 148.86 14.08V24H144.86V14.272C144.86 12.992 144.614 12.064 144.124 11.488C143.633 10.8907 142.876 10.592 141.852 10.592C140.636 10.592 139.654 10.9867 138.908 11.776C138.161 12.544 137.788 13.568 137.788 14.848V24H133.82V12.416C133.82 10.7093 133.734 9.184 133.564 7.84H137.308L137.596 10.496C138.15 9.51467 138.897 8.75733 139.836 8.224C140.796 7.69067 141.873 7.424 143.068 7.424ZM159.421 24.256C156.498 24.256 154.173 23.5733 152.445 22.208L153.565 19.392C155.293 20.672 157.266 21.312 159.485 21.312C160.445 21.312 161.181 21.152 161.693 20.832C162.226 20.512 162.493 20.064 162.493 19.488C162.493 18.9973 162.312 18.6133 161.949 18.336C161.586 18.0373 160.968 17.7813 160.093 17.568L157.405 16.96C154.461 16.32 152.989 14.816 152.989 12.448C152.989 11.4667 153.266 10.6027 153.821 9.856C154.376 9.088 155.154 8.49067 156.157 8.064C157.16 7.63733 158.322 7.424 159.645 7.424C160.797 7.424 161.906 7.60533 162.973 7.968C164.04 8.30933 164.978 8.81067 165.789 9.472L164.605 12.192C162.984 10.9973 161.32 10.4 159.613 10.4C158.696 10.4 157.981 10.5707 157.469 10.912C156.957 11.2533 156.701 11.7227 156.701 12.32C156.701 12.7893 156.85 13.1627 157.149 13.44C157.469 13.7173 158.002 13.952 158.749 14.144L161.501 14.752C163.101 15.1147 164.264 15.68 164.989 16.448C165.736 17.1947 166.109 18.176 166.109 19.392C166.109 20.8853 165.512 22.0693 164.317 22.944C163.122 23.8187 161.49 24.256 159.421 24.256ZM184.076 16.128H172.94C173.026 17.856 173.452 19.136 174.22 19.968C175.01 20.7787 176.172 21.184 177.708 21.184C179.479 21.184 181.122 20.608 182.636 19.456L183.788 22.208C183.02 22.8267 182.071 23.328 180.94 23.712C179.831 24.0747 178.7 24.256 177.548 24.256C174.903 24.256 172.823 23.5093 171.308 22.016C169.794 20.5227 169.036 18.4747 169.036 15.872C169.036 14.2293 169.367 12.768 170.028 11.488C170.69 10.208 171.618 9.216 172.812 8.512C174.007 7.78667 175.362 7.424 176.876 7.424C179.095 7.424 180.844 8.14933 182.124 9.6C183.426 11.0293 184.076 13.0027 184.076 15.52V16.128ZM176.972 10.304C175.906 10.304 175.031 10.624 174.348 11.264C173.687 11.8827 173.26 12.7893 173.068 13.984H180.588C180.46 12.768 180.087 11.8507 179.468 11.232C178.871 10.6133 178.039 10.304 176.972 10.304ZM187.864 0.447998H191.832V24H187.864V0.447998Z" fill="black"/>
</g>
</svg>
